<svg xmlns="http://www.w3.org/2000/svg" xmlns:xlink="http://www.w3.org/1999/xlink" contentStyleType="text/css" data-diagram-type="CLASS" height="415px" preserveAspectRatio="none" style="width:751px;height:415px;background:#FFFFFF;" version="1.1" viewBox="0 0 751 415" width="751px" zoomAndPan="magnify"><defs/><g><!--cluster MarcoConsiglio--><g class="cluster" data-entity="MarcoConsiglio" data-source-line="15" data-uid="ent0004" id="cluster_MarcoConsiglio"><path d="M199.5,4 L320.9287,4 A3.75,3.75 0 0 1 323.4287,6.5 L330.4287,26.2969 L741.5,26.2969 A2.5,2.5 0 0 1 744,28.7969 L744,405.5 A2.5,2.5 0 0 1 741.5,408 L199.5,408 A2.5,2.5 0 0 1 197,405.5 L197,6.5 A2.5,2.5 0 0 1 199.5,4" fill="none" style="stroke:#000000;stroke-width:1.5;"/><line style="stroke:#000000;stroke-width:1.5;" x1="197" x2="330.4287" y1="26.2969" y2="26.2969"/><text fill="#000000" font-family="sans-serif" font-size="14" font-weight="bold" lengthAdjust="spacing" textLength="120.4287" x="201" y="18.9951">MarcoConsiglio</text></g><!--cluster PHPrimesGenerator--><g class="cluster" data-entity="PHPrimesGenerator" data-source-line="14" data-uid="ent0002" id="cluster_PHPrimesGenerator"><path d="M207.5,31 L364.8721,31 A3.75,3.75 0 0 1 367.3721,33.5 L374.3721,53.2969 L733.5,53.2969 A2.5,2.5 0 0 1 736,55.7969 L736,397.5 A2.5,2.5 0 0 1 733.5,400 L207.5,400 A2.5,2.5 0 0 1 205,397.5 L205,33.5 A2.5,2.5 0 0 1 207.5,31" fill="none" style="stroke:#000000;stroke-width:1.5;"/><line style="stroke:#000000;stroke-width:1.5;" x1="205" x2="374.3721" y1="53.2969" y2="53.2969"/><text fill="#000000" font-family="sans-serif" font-size="14" font-weight="bold" lengthAdjust="spacing" textLength="156.3721" x="209" y="45.9951">PHPrimesGenerator</text></g><!--cluster Exception--><g class="cluster" data-entity="Exception" data-source-line="28" data-uid="ent0009" id="cluster_Exception"><path d="M215.5,58 L293.9854,58 A3.75,3.75 0 0 1 296.4854,60.5 L303.4854,80.2969 L530.5,80.2969 A2.5,2.5 0 0 1 533,82.7969 L533,122.5 A2.5,2.5 0 0 1 530.5,125 L215.5,125 A2.5,2.5 0 0 1 213,122.5 L213,60.5 A2.5,2.5 0 0 1 215.5,58" fill="none" style="stroke:#000000;stroke-width:1.5;"/><line style="stroke:#000000;stroke-width:1.5;" x1="213" x2="303.4854" y1="80.2969" y2="80.2969"/><text fill="#000000" font-family="sans-serif" font-size="14" font-weight="bold" lengthAdjust="spacing" textLength="77.4854" x="217" y="72.9951">Exception</text></g><!--cluster Iterator--><g class="cluster" data-entity="Iterator" data-source-line="34" data-uid="ent0013" id="cluster_Iterator"><path d="M251,133 L312.9629,133 A3.75,3.75 0 0 1 315.4629,135.5 L322.4629,155.2969 L725.5,155.2969 A2.5,2.5 0 0 1 728,157.7969 L728,297.5 A2.5,2.5 0 0 1 725.5,300 L251,300 A2.5,2.5 0 0 1 248.5,297.5 L248.5,135.5 A2.5,2.5 0 0 1 251,133" fill="none" style="stroke:#000000;stroke-width:1.5;"/><line style="stroke:#000000;stroke-width:1.5;" x1="248.5" x2="322.4629" y1="155.2969" y2="155.2969"/><text fill="#000000" font-family="sans-serif" font-size="14" font-weight="bold" lengthAdjust="spacing" textLength="60.9629" x="252.5" y="147.9951">Iterator</text></g><!--class Exception__class--><g class="entity" data-entity="Exception__class" data-source-line="26" data-uid="ent0008" id="entity_Exception__class"><rect fill="#F1F1F1" height="40.2656" rx="2.5" ry="2.5" style="stroke:#181818;stroke-width:0.5;" width="101.1455" x="45" y="81"/><ellipse cx="60" cy="101.1328" fill="#ADD1B2" rx="11" ry="11" style="stroke:#181818;stroke-width:1;"/><path d="M62.9688,106.7734 Q62.3906,107.0703 61.75,107.2109 Q61.1094,107.3672 60.4063,107.3672 Q57.9063,107.3672 56.5781,105.7266 Q55.2656,104.0703 55.2656,100.9453 Q55.2656,97.8203 56.5781,96.1641 Q57.9063,94.5078 60.4063,94.5078 Q61.1094,94.5078 61.75,94.6641 Q62.4063,94.8203 62.9688,95.1172 L62.9688,97.8359 Q62.3438,97.2578 61.75,96.9922 Q61.1563,96.7109 60.5313,96.7109 Q59.1875,96.7109 58.5,97.7891 Q57.8125,98.8516 57.8125,100.9453 Q57.8125,103.0391 58.5,104.1172 Q59.1875,105.1797 60.5313,105.1797 Q61.1563,105.1797 61.75,104.9141 Q62.3438,104.6328 62.9688,104.0547 L62.9688,106.7734 Z " fill="#000000"/><text fill="#000000" font-family="sans-serif" font-size="12" font-style="italic" lengthAdjust="spacing" textLength="64.4824" x="76.3315" y="97.1387">&#171;external&#187;</text><text fill="#000000" font-family="sans-serif" font-size="14" lengthAdjust="spacing" textLength="69.1455" x="74" y="112.9639">Exception</text></g><!--class CallbackFilterIterator__class--><g class="entity" data-entity="CallbackFilterIterator__class" data-source-line="32" data-uid="ent0012" id="entity_CallbackFilterIterator__class"><rect fill="#F1F1F1" height="40.2656" rx="2.5" ry="2.5" style="stroke:#181818;stroke-width:0.5;" width="179.4717" x="6" y="156"/><ellipse cx="21" cy="176.1328" fill="#ADD1B2" rx="11" ry="11" style="stroke:#181818;stroke-width:1;"/><path d="M23.9688,181.7734 Q23.3906,182.0703 22.75,182.2109 Q22.1094,182.3672 21.4063,182.3672 Q18.9063,182.3672 17.5781,180.7266 Q16.2656,179.0703 16.2656,175.9453 Q16.2656,172.8203 17.5781,171.1641 Q18.9063,169.5078 21.4063,169.5078 Q22.1094,169.5078 22.75,169.6641 Q23.4063,169.8203 23.9688,170.1172 L23.9688,172.8359 Q23.3438,172.2578 22.75,171.9922 Q22.1563,171.7109 21.5313,171.7109 Q20.1875,171.7109 19.5,172.7891 Q18.8125,173.8516 18.8125,175.9453 Q18.8125,178.0391 19.5,179.1172 Q20.1875,180.1797 21.5313,180.1797 Q22.1563,180.1797 22.75,179.9141 Q23.3438,179.6328 23.9688,179.0547 L23.9688,181.7734 Z " fill="#000000"/><text fill="#000000" font-family="sans-serif" font-size="12" font-style="italic" lengthAdjust="spacing" textLength="64.4824" x="76.4946" y="172.1387">&#171;external&#187;</text><text fill="#000000" font-family="sans-serif" font-size="14" lengthAdjust="spacing" textLength="147.4717" x="35" y="187.9639">CallbackFilterIterator</text></g><!--class Iterator__class--><g class="entity" data-entity="Iterator__class" data-source-line="38" data-uid="ent0016" id="entity_Iterator__class"><rect fill="#F1F1F1" height="40.2656" rx="2.5" ry="2.5" style="stroke:#181818;stroke-width:0.5;" width="92.4824" x="49.5" y="235"/><ellipse cx="64.5" cy="255.1328" fill="#B4A7E5" rx="11" ry="11" style="stroke:#181818;stroke-width:1;"/><path d="M60.4219,250.8984 L60.4219,248.7422 L67.8125,248.7422 L67.8125,250.8984 L65.3438,250.8984 L65.3438,258.9766 L67.8125,258.9766 L67.8125,261.1328 L60.4219,261.1328 L60.4219,258.9766 L62.8906,258.9766 L62.8906,250.8984 L60.4219,250.8984 Z " fill="#000000"/><text fill="#000000" font-family="sans-serif" font-size="12" font-style="italic" lengthAdjust="spacing" textLength="64.4824" x="76.5" y="251.1387">&#171;external&#187;</text><text fill="#000000" font-family="sans-serif" font-size="14" font-style="italic" lengthAdjust="spacing" textLength="52.377" x="82.5527" y="266.9639">Iterator</text></g><!--class AbstractPrimes__class--><g class="entity" data-entity="AbstractPrimes__class" data-source-line="15" data-uid="ent0003" id="entity_AbstractPrimes__class"><rect fill="#F1F1F1" height="32" rx="2.5" ry="2.5" style="stroke:#181818;stroke-width:0.5;" width="138.4014" x="304" y="310"/><ellipse cx="319" cy="326" fill="#A9DCDF" rx="11" ry="11" style="stroke:#181818;stroke-width:1;"/><path d="M319.1094,321.3438 L317.9531,326.4219 L320.2813,326.4219 L319.1094,321.3438 Z M317.625,319.1094 L320.6094,319.1094 L323.9688,331.5 L321.5156,331.5 L320.75,328.4375 L317.4688,328.4375 L316.7188,331.5 L314.2813,331.5 L317.625,319.1094 Z " fill="#000000"/><text fill="#000000" font-family="sans-serif" font-size="14" font-style="italic" lengthAdjust="spacing" textLength="106.4014" x="333" y="330.8467">AbstractPrimes</text></g><!--class OptimusPrime__class--><g class="entity" data-entity="OptimusPrime__class" data-source-line="19" data-uid="ent0005" id="entity_OptimusPrime__class"><rect fill="#F1F1F1" height="32" rx="2.5" ry="2.5" style="stroke:#181818;stroke-width:0.5;" width="131.4287" x="307.5" y="360"/><ellipse cx="322.5" cy="376" fill="#ADD1B2" rx="11" ry="11" style="stroke:#181818;stroke-width:1;"/><path d="M325.4688,381.6406 Q324.8906,381.9375 324.25,382.0781 Q323.6094,382.2344 322.9063,382.2344 Q320.4063,382.2344 319.0781,380.5938 Q317.7656,378.9375 317.7656,375.8125 Q317.7656,372.6875 319.0781,371.0313 Q320.4063,369.375 322.9063,369.375 Q323.6094,369.375 324.25,369.5313 Q324.9063,369.6875 325.4688,369.9844 L325.4688,372.7031 Q324.8438,372.125 324.25,371.8594 Q323.6563,371.5781 323.0313,371.5781 Q321.6875,371.5781 321,372.6563 Q320.3125,373.7188 320.3125,375.8125 Q320.3125,377.9063 321,378.9844 Q321.6875,380.0469 323.0313,380.0469 Q323.6563,380.0469 324.25,379.7813 Q324.8438,379.5 325.4688,378.9219 L325.4688,381.6406 Z " fill="#000000"/><text fill="#000000" font-family="sans-serif" font-size="14" lengthAdjust="spacing" textLength="99.4287" x="336.5" y="380.8467">OptimusPrime</text></g><!--class Primes3__class--><g class="entity" data-entity="Primes3__class" data-source-line="23" data-uid="ent0006" id="entity_Primes3__class"><rect fill="#F1F1F1" height="32" rx="2.5" ry="2.5" style="stroke:#181818;stroke-width:0.5;" width="88.54" x="596" y="310"/><ellipse cx="611" cy="326" fill="#ADD1B2" rx="11" ry="11" style="stroke:#181818;stroke-width:1;"/><path d="M613.9688,331.6406 Q613.3906,331.9375 612.75,332.0781 Q612.1094,332.2344 611.4063,332.2344 Q608.9063,332.2344 607.5781,330.5938 Q606.2656,328.9375 606.2656,325.8125 Q606.2656,322.6875 607.5781,321.0313 Q608.9063,319.375 611.4063,319.375 Q612.1094,319.375 612.75,319.5313 Q613.4063,319.6875 613.9688,319.9844 L613.9688,322.7031 Q613.3438,322.125 612.75,321.8594 Q612.1563,321.5781 611.5313,321.5781 Q610.1875,321.5781 609.5,322.6563 Q608.8125,323.7188 608.8125,325.8125 Q608.8125,327.9063 609.5,328.9844 Q610.1875,330.0469 611.5313,330.0469 Q612.1563,330.0469 612.75,329.7813 Q613.3438,329.5 613.9688,328.9219 L613.9688,331.6406 Z " fill="#000000"/><text fill="#000000" font-family="sans-serif" font-size="14" lengthAdjust="spacing" textLength="56.54" x="625" y="330.8467">Primes3</text></g><!--class MaximumIntegerIteratorValueReached__class--><g class="entity" data-entity="MaximumIntegerIteratorValueReached__class" data-source-line="29" data-uid="ent0010" id="entity_MaximumIntegerIteratorValueReached__class"><rect fill="#F1F1F1" height="32" rx="2.5" ry="2.5" style="stroke:#181818;stroke-width:0.5;" width="304.2412" x="221" y="85"/><ellipse cx="236" cy="101" fill="#ADD1B2" rx="11" ry="11" style="stroke:#181818;stroke-width:1;"/><path d="M238.9688,106.6406 Q238.3906,106.9375 237.75,107.0781 Q237.1094,107.2344 236.4063,107.2344 Q233.9063,107.2344 232.5781,105.5938 Q231.2656,103.9375 231.2656,100.8125 Q231.2656,97.6875 232.5781,96.0313 Q233.9063,94.375 236.4063,94.375 Q237.1094,94.375 237.75,94.5313 Q238.4063,94.6875 238.9688,94.9844 L238.9688,97.7031 Q238.3438,97.125 237.75,96.8594 Q237.1563,96.5781 236.5313,96.5781 Q235.1875,96.5781 234.5,97.6563 Q233.8125,98.7188 233.8125,100.8125 Q233.8125,102.9063 234.5,103.9844 Q235.1875,105.0469 236.5313,105.0469 Q237.1563,105.0469 237.75,104.7813 Q238.3438,104.5 238.9688,103.9219 L238.9688,106.6406 Z " fill="#000000"/><text fill="#000000" font-family="sans-serif" font-size="14" lengthAdjust="spacing" textLength="272.2412" x="250" y="105.8467">MaximumIntegerIteratorValueReached</text></g><!--class CustomCallbackFilterIterator__class--><g class="entity" data-entity="CustomCallbackFilterIterator__class" data-source-line="35" data-uid="ent0014" id="entity_CustomCallbackFilterIterator__class"><rect fill="#F1F1F1" height="32" rx="2.5" ry="2.5" style="stroke:#181818;stroke-width:0.5;" width="233.1064" x="256.5" y="160"/><ellipse cx="271.5" cy="176" fill="#ADD1B2" rx="11" ry="11" style="stroke:#181818;stroke-width:1;"/><path d="M274.4688,181.6406 Q273.8906,181.9375 273.25,182.0781 Q272.6094,182.2344 271.9063,182.2344 Q269.4063,182.2344 268.0781,180.5938 Q266.7656,178.9375 266.7656,175.8125 Q266.7656,172.6875 268.0781,171.0313 Q269.4063,169.375 271.9063,169.375 Q272.6094,169.375 273.25,169.5313 Q273.9063,169.6875 274.4688,169.9844 L274.4688,172.7031 Q273.8438,172.125 273.25,171.8594 Q272.6563,171.5781 272.0313,171.5781 Q270.6875,171.5781 270,172.6563 Q269.3125,173.7188 269.3125,175.8125 Q269.3125,177.9063 270,178.9844 Q270.6875,180.0469 272.0313,180.0469 Q272.6563,180.0469 273.25,179.7813 Q273.8438,179.5 274.4688,178.9219 L274.4688,181.6406 Z " fill="#000000"/><text fill="#000000" font-family="sans-serif" font-size="14" lengthAdjust="spacing" textLength="201.1064" x="285.5" y="180.8467">CustomCallbackFilterIterator</text></g><!--class ListIterator__class--><g class="entity" data-entity="ListIterator__class" data-source-line="41" data-uid="ent0017" id="entity_ListIterator__class"><rect fill="#F1F1F1" height="32" rx="2.5" ry="2.5" style="stroke:#181818;stroke-width:0.5;" width="108.8496" x="318.5" y="210"/><ellipse cx="333.5" cy="226" fill="#ADD1B2" rx="11" ry="11" style="stroke:#181818;stroke-width:1;"/><path d="M336.4688,231.6406 Q335.8906,231.9375 335.25,232.0781 Q334.6094,232.2344 333.9063,232.2344 Q331.4063,232.2344 330.0781,230.5938 Q328.7656,228.9375 328.7656,225.8125 Q328.7656,222.6875 330.0781,221.0313 Q331.4063,219.375 333.9063,219.375 Q334.6094,219.375 335.25,219.5313 Q335.9063,219.6875 336.4688,219.9844 L336.4688,222.7031 Q335.8438,222.125 335.25,221.8594 Q334.6563,221.5781 334.0313,221.5781 Q332.6875,221.5781 332,222.6563 Q331.3125,223.7188 331.3125,225.8125 Q331.3125,227.9063 332,228.9844 Q332.6875,230.0469 334.0313,230.0469 Q334.6563,230.0469 335.25,229.7813 Q335.8438,229.5 336.4688,228.9219 L336.4688,231.6406 Z " fill="#000000"/><text fill="#000000" font-family="sans-serif" font-size="14" lengthAdjust="spacing" textLength="76.8496" x="347.5" y="230.8467">ListIterator</text></g><!--class IntegerListIterator__class--><g class="entity" data-entity="IntegerListIterator__class" data-source-line="45" data-uid="ent0019" id="entity_IntegerListIterator__class"><rect fill="#F1F1F1" height="32" rx="2.5" ry="2.5" style="stroke:#181818;stroke-width:0.5;" width="159.21" x="561" y="210"/><ellipse cx="576" cy="226" fill="#ADD1B2" rx="11" ry="11" style="stroke:#181818;stroke-width:1;"/><path d="M578.9688,231.6406 Q578.3906,231.9375 577.75,232.0781 Q577.1094,232.2344 576.4063,232.2344 Q573.9063,232.2344 572.5781,230.5938 Q571.2656,228.9375 571.2656,225.8125 Q571.2656,222.6875 572.5781,221.0313 Q573.9063,219.375 576.4063,219.375 Q577.1094,219.375 577.75,219.5313 Q578.4063,219.6875 578.9688,219.9844 L578.9688,222.7031 Q578.3438,222.125 577.75,221.8594 Q577.1563,221.5781 576.5313,221.5781 Q575.1875,221.5781 574.5,222.6563 Q573.8125,223.7188 573.8125,225.8125 Q573.8125,227.9063 574.5,228.9844 Q575.1875,230.0469 576.5313,230.0469 Q577.1563,230.0469 577.75,229.7813 Q578.3438,229.5 578.9688,228.9219 L578.9688,231.6406 Z " fill="#000000"/><text fill="#000000" font-family="sans-serif" font-size="14" lengthAdjust="spacing" textLength="127.21" x="590" y="230.8467">IntegerListIterator</text></g><!--class PrimeIterator__class--><g class="entity" data-entity="PrimeIterator__class" data-source-line="49" data-uid="ent0021" id="entity_PrimeIterator__class"><rect fill="#F1F1F1" height="32" rx="2.5" ry="2.5" style="stroke:#181818;stroke-width:0.5;" width="124.7158" x="310.5" y="260"/><ellipse cx="325.5" cy="276" fill="#ADD1B2" rx="11" ry="11" style="stroke:#181818;stroke-width:1;"/><path d="M328.4688,281.6406 Q327.8906,281.9375 327.25,282.0781 Q326.6094,282.2344 325.9063,282.2344 Q323.4063,282.2344 322.0781,280.5938 Q320.7656,278.9375 320.7656,275.8125 Q320.7656,272.6875 322.0781,271.0313 Q323.4063,269.375 325.9063,269.375 Q326.6094,269.375 327.25,269.5313 Q327.9063,269.6875 328.4688,269.9844 L328.4688,272.7031 Q327.8438,272.125 327.25,271.8594 Q326.6563,271.5781 326.0313,271.5781 Q324.6875,271.5781 324,272.6563 Q323.3125,273.7188 323.3125,275.8125 Q323.3125,277.9063 324,278.9844 Q324.6875,280.0469 326.0313,280.0469 Q326.6563,280.0469 327.25,279.7813 Q327.8438,279.5 328.4688,278.9219 L328.4688,281.6406 Z " fill="#000000"/><text fill="#000000" font-family="sans-serif" font-size="14" lengthAdjust="spacing" textLength="92.7158" x="339.5" y="280.8467">PrimeIterator</text></g><g class="link" data-entity-1="AbstractPrimes__class" data-entity-2="Primes3__class" data-uid="lnk7" id="link_AbstractPrimes__class_Primes3__class"><polygon fill="none" points="442.0281,326,460.0281,332,460.0281,320,442.0281,326" style="stroke:#516F42;stroke-width:1;"/><path d="M460.0281,326 C508.4248,326 554.0166,326 595.7877,326" fill="none" style="stroke:#516F42;stroke-width:1;"/></g><g class="link" data-entity-1="Exception__class" data-entity-2="MaximumIntegerIteratorValueReached__class" data-uid="lnk11" id="link_Exception__class_MaximumIntegerIteratorValueReached__class"><polygon fill="none" points="146.0721,101,164.0721,107,164.0721,95,146.0721,101" style="stroke:#516F42;stroke-width:1;"/><path d="M164.0721,101 C185.5282,101 193.9085,101 220.9787,101" fill="none" style="stroke:#516F42;stroke-width:1;"/></g><g class="link" data-entity-1="CallbackFilterIterator__class" data-entity-2="CustomCallbackFilterIterator__class" data-uid="lnk15" id="link_CallbackFilterIterator__class_CustomCallbackFilterIterator__class"><polygon fill="none" points="185.1864,176,203.1864,182,203.1864,170,185.1864,176" style="stroke:#516F42;stroke-width:1;"/><path d="M203.1864,176 C225.8376,176 232.5247,176 256.3108,176" fill="none" style="stroke:#516F42;stroke-width:1;"/></g><g class="link" data-entity-1="Iterator__class" data-entity-2="ListIterator__class" data-uid="lnk18" id="link_Iterator__class_ListIterator__class"><polygon fill="none" points="141.6847,250.2437,160.2139,254.3264,158.9577,242.3924,141.6847,250.2437" style="stroke:#516F42;stroke-width:1;"/><path d="M159.5858,248.3594 C207.977,243.2656 266.8331,237.0702 318.2812,231.6546" fill="none" style="stroke:#516F42;stroke-width:1;stroke-dasharray:7,7;"/></g><g class="link" data-entity-1="ListIterator__class" data-entity-2="IntegerListIterator__class" data-uid="lnk20" id="link_ListIterator__class_IntegerListIterator__class"><polygon fill="none" points="427.7279,226,445.7279,232,445.7279,220,427.7279,226" style="stroke:#516F42;stroke-width:1;"/><path d="M445.7279,226 C483.9875,226 518.0158,226 560.9273,226" fill="none" style="stroke:#516F42;stroke-width:1;"/></g><g class="link" data-entity-1="Iterator__class" data-entity-2="PrimeIterator__class" data-uid="lnk22" id="link_Iterator__class_PrimeIterator__class"><polygon fill="none" points="141.6847,258.4442,159.1766,265.7949,160.0887,253.8296,141.6847,258.4442" style="stroke:#516F42;stroke-width:1;"/><path d="M159.6327,259.8123 C205.5814,263.3147 259.157,267.3985 310.3044,271.2973" fill="none" style="stroke:#516F42;stroke-width:1;stroke-dasharray:7,7;"/></g><!--SRC=[lLFRRfj047tdAwRk5_Jw54LAtLkaHerQgKyhHMCOO9MzeDsXiHNbtxiiO8oDOyUokaymS_QSEGVcLUMmq0WALxPcy9eO3IO0uE-bgT2XXYldxCFSAklWzOSt7_FtRyTzJ5d-bRpwP5r6xXWWflU5ixN9Ed0UppJuiqHjJNOqUOy_HiENcDa7QGh8KNbAalsjeQEa8LvL1DPnQPDIPWIaArw19hqWvnD5EGDRSB8e6JBfACncJUA9mQ0cNs5AlwcXup2Q44coBiCDkjJEhV6oKD8ASVlzridG_4Q6MlnZOm9muTa5qm2fGkzXTjKLMlWCqCEuT7VN8iDfAPwIfnE4UxsV5KjT-mYAQfk5CskrtNTHfdiU56Z9P38VSZn8AyIUI8OXEyKlovIgvgj5pVLRV-7Y8iewWmekBnzVPaw8DT-MpnjSXWZrjM4go5rpY_-3ggPVX6b9MHpdC6mgdHqJkwxdgDGYRCvNgNWWZfhJhJFbqTDjnJ6lFLlzt53F0AOYE80Syf0XMfStqyz6Wl_7zm_fUIIxMTXOBQahHPeCDzws-oVjtTwHkdzjPxA9-ecRsLyNOfBil7OYRcHaL7bvnly0]--></g></svg>