<svg xmlns="http://www.w3.org/2000/svg" xmlns:xlink="http://www.w3.org/1999/xlink" contentStyleType="text/css" data-diagram-type="CLASS" height="340px" preserveAspectRatio="none" style="width:602px;height:340px;background:#FFFFFF;" version="1.1" viewBox="0 0 602 340" width="602px" zoomAndPan="magnify"><defs/><g><!--cluster MarcoConsiglio--><g class="cluster" data-entity="MarcoConsiglio" data-source-line="15" data-uid="ent0004" id="cluster_MarcoConsiglio"><path d="M199.5,4 L320.9287,4 A3.75,3.75 0 0 1 323.4287,6.5 L330.4287,26.2969 L592.5,26.2969 A2.5,2.5 0 0 1 595,28.7969 L595,330.5 A2.5,2.5 0 0 1 592.5,333 L199.5,333 A2.5,2.5 0 0 1 197,330.5 L197,6.5 A2.5,2.5 0 0 1 199.5,4" fill="none" style="stroke:#000000;stroke-width:1.5;"/><line style="stroke:#000000;stroke-width:1.5;" x1="197" x2="330.4287" y1="26.2969" y2="26.2969"/><text fill="#000000" font-family="sans-serif" font-size="14" font-weight="bold" lengthAdjust="spacing" textLength="120.4287" x="201" y="18.9951">MarcoConsiglio</text></g><!--cluster PHPrimesGenerator--><g class="cluster" data-entity="PHPrimesGenerator" data-source-line="14" data-uid="ent0002" id="cluster_PHPrimesGenerator"><path d="M207.5,31 L364.8721,31 A3.75,3.75 0 0 1 367.3721,33.5 L374.3721,53.2969 L584.5,53.2969 A2.5,2.5 0 0 1 587,55.7969 L587,322.5 A2.5,2.5 0 0 1 584.5,325 L207.5,325 A2.5,2.5 0 0 1 205,322.5 L205,33.5 A2.5,2.5 0 0 1 207.5,31" fill="none" style="stroke:#000000;stroke-width:1.5;"/><line style="stroke:#000000;stroke-width:1.5;" x1="205" x2="374.3721" y1="53.2969" y2="53.2969"/><text fill="#000000" font-family="sans-serif" font-size="14" font-weight="bold" lengthAdjust="spacing" textLength="156.3721" x="209" y="45.9951">PHPrimesGenerator</text></g><!--cluster Iterator--><g class="cluster" data-entity="Iterator" data-source-line="28" data-uid="ent0009" id="cluster_Iterator"><path d="M215.5,58 L277.4629,58 A3.75,3.75 0 0 1 279.9629,60.5 L286.9629,80.2969 L459.5,80.2969 A2.5,2.5 0 0 1 462,82.7969 L462,222.5 A2.5,2.5 0 0 1 459.5,225 L215.5,225 A2.5,2.5 0 0 1 213,222.5 L213,60.5 A2.5,2.5 0 0 1 215.5,58" fill="none" style="stroke:#000000;stroke-width:1.5;"/><line style="stroke:#000000;stroke-width:1.5;" x1="213" x2="286.9629" y1="80.2969" y2="80.2969"/><text fill="#000000" font-family="sans-serif" font-size="14" font-weight="bold" lengthAdjust="spacing" textLength="60.9629" x="217" y="72.9951">Iterator</text></g><!--class CallbackFilterIterator__class--><g class="entity" data-entity="CallbackFilterIterator__class" data-source-line="26" data-uid="ent0008" id="entity_CallbackFilterIterator__class"><rect fill="#F1F1F1" height="40.2656" rx="2.5" ry="2.5" style="stroke:#181818;stroke-width:0.5;" width="179.4717" x="6" y="81"/><ellipse cx="21" cy="101.1328" fill="#ADD1B2" rx="11" ry="11" style="stroke:#181818;stroke-width:1;"/><path d="M23.9688,106.7734 Q23.3906,107.0703 22.75,107.2109 Q22.1094,107.3672 21.4063,107.3672 Q18.9063,107.3672 17.5781,105.7266 Q16.2656,104.0703 16.2656,100.9453 Q16.2656,97.8203 17.5781,96.1641 Q18.9063,94.5078 21.4063,94.5078 Q22.1094,94.5078 22.75,94.6641 Q23.4063,94.8203 23.9688,95.1172 L23.9688,97.8359 Q23.3438,97.2578 22.75,96.9922 Q22.1563,96.7109 21.5313,96.7109 Q20.1875,96.7109 19.5,97.7891 Q18.8125,98.8516 18.8125,100.9453 Q18.8125,103.0391 19.5,104.1172 Q20.1875,105.1797 21.5313,105.1797 Q22.1563,105.1797 22.75,104.9141 Q23.3438,104.6328 23.9688,104.0547 L23.9688,106.7734 Z " fill="#000000"/><text fill="#000000" font-family="sans-serif" font-size="12" font-style="italic" lengthAdjust="spacing" textLength="64.4824" x="76.4946" y="97.1387">&#171;external&#187;</text><text fill="#000000" font-family="sans-serif" font-size="14" lengthAdjust="spacing" textLength="147.4717" x="35" y="112.9639">CallbackFilterIterator</text></g><!--class Iterator__class--><g class="entity" data-entity="Iterator__class" data-source-line="32" data-uid="ent0012" id="entity_Iterator__class"><rect fill="#F1F1F1" height="40.2656" rx="2.5" ry="2.5" style="stroke:#181818;stroke-width:0.5;" width="92.4824" x="49.5" y="160"/><ellipse cx="64.5" cy="180.1328" fill="#B4A7E5" rx="11" ry="11" style="stroke:#181818;stroke-width:1;"/><path d="M60.4219,175.8984 L60.4219,173.7422 L67.8125,173.7422 L67.8125,175.8984 L65.3438,175.8984 L65.3438,183.9766 L67.8125,183.9766 L67.8125,186.1328 L60.4219,186.1328 L60.4219,183.9766 L62.8906,183.9766 L62.8906,175.8984 L60.4219,175.8984 Z " fill="#000000"/><text fill="#000000" font-family="sans-serif" font-size="12" font-style="italic" lengthAdjust="spacing" textLength="64.4824" x="76.5" y="176.1387">&#171;external&#187;</text><text fill="#000000" font-family="sans-serif" font-size="14" font-style="italic" lengthAdjust="spacing" textLength="52.377" x="82.5527" y="191.9639">Iterator</text></g><!--class AbstractPrimes__class--><g class="entity" data-entity="AbstractPrimes__class" data-source-line="15" data-uid="ent0003" id="entity_AbstractPrimes__class"><rect fill="#F1F1F1" height="32" rx="2.5" ry="2.5" style="stroke:#181818;stroke-width:0.5;" width="138.4014" x="268.5" y="235"/><ellipse cx="283.5" cy="251" fill="#A9DCDF" rx="11" ry="11" style="stroke:#181818;stroke-width:1;"/><path d="M283.6094,246.3438 L282.4531,251.4219 L284.7813,251.4219 L283.6094,246.3438 Z M282.125,244.1094 L285.1094,244.1094 L288.4688,256.5 L286.0156,256.5 L285.25,253.4375 L281.9688,253.4375 L281.2188,256.5 L278.7813,256.5 L282.125,244.1094 Z " fill="#000000"/><text fill="#000000" font-family="sans-serif" font-size="14" font-style="italic" lengthAdjust="spacing" textLength="106.4014" x="297.5" y="255.8467">AbstractPrimes</text></g><!--class OptimusPrime__class--><g class="entity" data-entity="OptimusPrime__class" data-source-line="19" data-uid="ent0005" id="entity_OptimusPrime__class"><rect fill="#F1F1F1" height="32" rx="2.5" ry="2.5" style="stroke:#181818;stroke-width:0.5;" width="131.4287" x="272" y="285"/><ellipse cx="287" cy="301" fill="#ADD1B2" rx="11" ry="11" style="stroke:#181818;stroke-width:1;"/><path d="M289.9688,306.6406 Q289.3906,306.9375 288.75,307.0781 Q288.1094,307.2344 287.4063,307.2344 Q284.9063,307.2344 283.5781,305.5938 Q282.2656,303.9375 282.2656,300.8125 Q282.2656,297.6875 283.5781,296.0313 Q284.9063,294.375 287.4063,294.375 Q288.1094,294.375 288.75,294.5313 Q289.4063,294.6875 289.9688,294.9844 L289.9688,297.7031 Q289.3438,297.125 288.75,296.8594 Q288.1563,296.5781 287.5313,296.5781 Q286.1875,296.5781 285.5,297.6563 Q284.8125,298.7188 284.8125,300.8125 Q284.8125,302.9063 285.5,303.9844 Q286.1875,305.0469 287.5313,305.0469 Q288.1563,305.0469 288.75,304.7813 Q289.3438,304.5 289.9688,303.9219 L289.9688,306.6406 Z " fill="#000000"/><text fill="#000000" font-family="sans-serif" font-size="14" lengthAdjust="spacing" textLength="99.4287" x="301" y="305.8467">OptimusPrime</text></g><!--class Primes3__class--><g class="entity" data-entity="Primes3__class" data-source-line="23" data-uid="ent0006" id="entity_Primes3__class"><rect fill="#F1F1F1" height="32" rx="2.5" ry="2.5" style="stroke:#181818;stroke-width:0.5;" width="88.54" x="490" y="235"/><ellipse cx="505" cy="251" fill="#ADD1B2" rx="11" ry="11" style="stroke:#181818;stroke-width:1;"/><path d="M507.9688,256.6406 Q507.3906,256.9375 506.75,257.0781 Q506.1094,257.2344 505.4063,257.2344 Q502.9063,257.2344 501.5781,255.5938 Q500.2656,253.9375 500.2656,250.8125 Q500.2656,247.6875 501.5781,246.0313 Q502.9063,244.375 505.4063,244.375 Q506.1094,244.375 506.75,244.5313 Q507.4063,244.6875 507.9688,244.9844 L507.9688,247.7031 Q507.3438,247.125 506.75,246.8594 Q506.1563,246.5781 505.5313,246.5781 Q504.1875,246.5781 503.5,247.6563 Q502.8125,248.7188 502.8125,250.8125 Q502.8125,252.9063 503.5,253.9844 Q504.1875,255.0469 505.5313,255.0469 Q506.1563,255.0469 506.75,254.7813 Q507.3438,254.5 507.9688,253.9219 L507.9688,256.6406 Z " fill="#000000"/><text fill="#000000" font-family="sans-serif" font-size="14" lengthAdjust="spacing" textLength="56.54" x="519" y="255.8467">Primes3</text></g><!--class CustomCallbackFilterIterator__class--><g class="entity" data-entity="CustomCallbackFilterIterator__class" data-source-line="29" data-uid="ent0010" id="entity_CustomCallbackFilterIterator__class"><rect fill="#F1F1F1" height="32" rx="2.5" ry="2.5" style="stroke:#181818;stroke-width:0.5;" width="233.1064" x="221" y="85"/><ellipse cx="236" cy="101" fill="#ADD1B2" rx="11" ry="11" style="stroke:#181818;stroke-width:1;"/><path d="M238.9688,106.6406 Q238.3906,106.9375 237.75,107.0781 Q237.1094,107.2344 236.4063,107.2344 Q233.9063,107.2344 232.5781,105.5938 Q231.2656,103.9375 231.2656,100.8125 Q231.2656,97.6875 232.5781,96.0313 Q233.9063,94.375 236.4063,94.375 Q237.1094,94.375 237.75,94.5313 Q238.4063,94.6875 238.9688,94.9844 L238.9688,97.7031 Q238.3438,97.125 237.75,96.8594 Q237.1563,96.5781 236.5313,96.5781 Q235.1875,96.5781 234.5,97.6563 Q233.8125,98.7188 233.8125,100.8125 Q233.8125,102.9063 234.5,103.9844 Q235.1875,105.0469 236.5313,105.0469 Q237.1563,105.0469 237.75,104.7813 Q238.3438,104.5 238.9688,103.9219 L238.9688,106.6406 Z " fill="#000000"/><text fill="#000000" font-family="sans-serif" font-size="14" lengthAdjust="spacing" textLength="201.1064" x="250" y="105.8467">CustomCallbackFilterIterator</text></g><!--class ListIterator__class--><g class="entity" data-entity="ListIterator__class" data-source-line="35" data-uid="ent0013" id="entity_ListIterator__class"><rect fill="#F1F1F1" height="32" rx="2.5" ry="2.5" style="stroke:#181818;stroke-width:0.5;" width="108.8496" x="283" y="135"/><ellipse cx="298" cy="151" fill="#ADD1B2" rx="11" ry="11" style="stroke:#181818;stroke-width:1;"/><path d="M300.9688,156.6406 Q300.3906,156.9375 299.75,157.0781 Q299.1094,157.2344 298.4063,157.2344 Q295.9063,157.2344 294.5781,155.5938 Q293.2656,153.9375 293.2656,150.8125 Q293.2656,147.6875 294.5781,146.0313 Q295.9063,144.375 298.4063,144.375 Q299.1094,144.375 299.75,144.5313 Q300.4063,144.6875 300.9688,144.9844 L300.9688,147.7031 Q300.3438,147.125 299.75,146.8594 Q299.1563,146.5781 298.5313,146.5781 Q297.1875,146.5781 296.5,147.6563 Q295.8125,148.7188 295.8125,150.8125 Q295.8125,152.9063 296.5,153.9844 Q297.1875,155.0469 298.5313,155.0469 Q299.1563,155.0469 299.75,154.7813 Q300.3438,154.5 300.9688,153.9219 L300.9688,156.6406 Z " fill="#000000"/><text fill="#000000" font-family="sans-serif" font-size="14" lengthAdjust="spacing" textLength="76.8496" x="312" y="155.8467">ListIterator</text></g><!--class PrimeIterator__class--><g class="entity" data-entity="PrimeIterator__class" data-source-line="39" data-uid="ent0015" id="entity_PrimeIterator__class"><rect fill="#F1F1F1" height="32" rx="2.5" ry="2.5" style="stroke:#181818;stroke-width:0.5;" width="124.7158" x="275" y="185"/><ellipse cx="290" cy="201" fill="#ADD1B2" rx="11" ry="11" style="stroke:#181818;stroke-width:1;"/><path d="M292.9688,206.6406 Q292.3906,206.9375 291.75,207.0781 Q291.1094,207.2344 290.4063,207.2344 Q287.9063,207.2344 286.5781,205.5938 Q285.2656,203.9375 285.2656,200.8125 Q285.2656,197.6875 286.5781,196.0313 Q287.9063,194.375 290.4063,194.375 Q291.1094,194.375 291.75,194.5313 Q292.4063,194.6875 292.9688,194.9844 L292.9688,197.7031 Q292.3438,197.125 291.75,196.8594 Q291.1563,196.5781 290.5313,196.5781 Q289.1875,196.5781 288.5,197.6563 Q287.8125,198.7188 287.8125,200.8125 Q287.8125,202.9063 288.5,203.9844 Q289.1875,205.0469 290.5313,205.0469 Q291.1563,205.0469 291.75,204.7813 Q292.3438,204.5 292.9688,203.9219 L292.9688,206.6406 Z " fill="#000000"/><text fill="#000000" font-family="sans-serif" font-size="14" lengthAdjust="spacing" textLength="92.7158" x="304" y="205.8467">PrimeIterator</text></g><g class="link" data-entity-1="AbstractPrimes__class" data-entity-2="Primes3__class" data-uid="lnk7" id="link_AbstractPrimes__class_Primes3__class"><polygon fill="none" points="406.7015,251,424.7015,257,424.7015,245,406.7015,251" style="stroke:#516F42;stroke-width:1;"/><path d="M424.7015,251 C452.2686,251 465.2804,251 489.7344,251" fill="none" style="stroke:#516F42;stroke-width:1;"/></g><g class="link" data-entity-1="CallbackFilterIterator__class" data-entity-2="CustomCallbackFilterIterator__class" data-uid="lnk11" id="link_CallbackFilterIterator__class_CustomCallbackFilterIterator__class"><polygon fill="none" points="185.1853,101,203.1853,107,203.1853,95,185.1853,101" style="stroke:#516F42;stroke-width:1;"/><path d="M203.1853,101 C214.8023,101 208.8404,101 220.8209,101" fill="none" style="stroke:#516F42;stroke-width:1;"/></g><g class="link" data-entity-1="Iterator__class" data-entity-2="ListIterator__class" data-uid="lnk14" id="link_Iterator__class_ListIterator__class"><polygon fill="none" points="141.6422,174.5453,160.2319,178.3427,158.7924,166.4294,141.6422,174.5453" style="stroke:#516F42;stroke-width:1;"/><path d="M159.5122,172.386 C199.5689,167.5458 240.2842,162.6261 282.7491,157.4949" fill="none" style="stroke:#516F42;stroke-width:1;stroke-dasharray:7,7;"/></g><g class="link" data-entity-1="Iterator__class" data-entity-2="PrimeIterator__class" data-uid="lnk16" id="link_Iterator__class_PrimeIterator__class"><polygon fill="none" points="141.6422,183.9499,159.0506,191.4961,160.0967,179.5418,141.6422,183.9499" style="stroke:#516F42;stroke-width:1;"/><path d="M159.5737,185.5189 C197.1862,188.81 233.2038,191.9616 274.8037,195.6016" fill="none" style="stroke:#516F42;stroke-width:1;stroke-dasharray:7,7;"/></g><!--SRC=[lLBRIiDG47m_Nx7MB_3w94AjU075Wg-1iaqswUAvX3rRQn7_tJHfRIDjhKKyJs5cCZExx44fM3W4YzCmLeYE53qQ08Wlx4iKTD0L2PDUi47WyEpeF3yzRlEOAh-oJg-2P2Ix235zAIICVJONv_LRBxvcTC5dEvilzBjan15cOSA-W1nj96CsKql6iYUTbWH1T1JCY3C2SgLEmP4RaaHZALVG0CB5I25ZeQfRy2QIWaT7iSIKdcbcfrMr937c2uP7b3JqWezSM0v9qh_h2rVaBNbgzE-p8G27KQKQ6Y2r62DqkdEWaNS08xIXmQ1HLg-n-30VUmGlyfvAPJUEjQXEMmN-EAjXJ-gO-VSoWTwKV1QhFVvecoGRLh8iEK_ieRN3wePks2h9lJR_rmNMKmkhYukwa7YqS7dv_hknasHXzsq1lN7KuBQLsY9OjweVbCjziA-uVDQ-qmhydxaVE6ehTXLOEJ9sfIL7NcUpVUVtki2DbMfTgrCB-NsfJm00]--></g></svg>